<svg xmlns="http://www.w3.org/2000/svg" viewBox="0 0 64 64" role="img" aria-labelledby="title">
  <title id="title">MPStorys</title>
  <defs>
    <linearGradient id="brand" x1="8" y1="6" x2="56" y2="60" gradientUnits="userSpaceOnUse">
      <stop stop-color="#ff8a2a"/>
      <stop offset="1" stop-color="#d84a16"/>
    </linearGradient>
  </defs>
  <rect width="64" height="64" rx="16" fill="url(#brand)"/>
  <path fill="#fff" d="M31.7 9.5c1.2 4.3 4.1 7.4 8.4 9.3l5.2-2.5-1.7 6.1c3.8.4 7.2-.4 10.4-2.3-1.1 6.7-4.8 11.7-11.1 15l3.3 4.3-11.3-.8v15.9h-5.8V38.6l-11.3.8 3.3-4.3C14.8 31.8 11.1 26.8 10 20.1c3.2 1.9 6.6 2.7 10.4 2.3l-1.7-6.1 5.2 2.5c4.3-1.9 7.1-5 7.8-9.3Z"/>
</svg>
