<svg xmlns="http://www.w3.org/2000/svg" viewBox="0 0 1200 628" role="img" aria-labelledby="title desc">
  <title id="title">TMS official news</title><desc id="desc">Taiwan MapleStory branded news placeholder</desc>
  <defs><linearGradient id="g" x1="0" y1="0" x2="1" y2="1"><stop stop-color="#087e87"/><stop offset="1" stop-color="#55c4b8"/></linearGradient></defs>
  <rect width="1200" height="628" fill="url(#g)"/><circle cx="1020" cy="100" r="260" fill="#fff" opacity=".1"/><path d="M80 520c180-130 310-150 430-50 140 115 295 90 570-75v233H80Z" fill="#073f53" opacity=".24"/>
  <path d="M188 150c76 60 116 138 121 234-67-34-130-37-190-10 39-72 62-147 69-224Z" fill="#ffe16a"/><path d="M130 405c75-29 144-22 208 22-58 28-106 69-144 124-14-56-36-105-64-146Z" fill="#fff" opacity=".94"/>
  <text x="430" y="280" fill="#fff" font-family="Arial,sans-serif" font-size="72" font-weight="700">TMS</text><text x="430" y="350" fill="#fff" opacity=".92" font-family="Arial,sans-serif" font-size="34">新楓之谷官方情報</text>
</svg>
